<?xml version="1.0" encoding="UTF-8"?>
<svg xmlns="http://www.w3.org/2000/svg" xmlns:xlink="http://www.w3.org/1999/xlink" viewBox="0 0 100 100">
  <defs>
    <style>
      .cls-1 {
        fill: #fff;
      }

      .cls-1, .cls-2 {
        stroke-width: 0px;
      }

      .cls-2 {
        fill: url(#radial-gradient);
      }
    </style>
    <radialGradient id="radial-gradient" cx="-47.67" cy="159.89" fx="-47.67" fy="159.89" r="336.84" gradientUnits="userSpaceOnUse">
      <stop offset="0" stop-color="#e32028"/>
      <stop offset=".55" stop-color="#232630"/>
    </radialGradient>
  </defs>
  <g id="Layer_1" data-name="Layer 1">
    <rect class="cls-2" y="0" width="100" height="100" rx="25.08" ry="25.08"/>
  </g>
  <g id="Layer_2" data-name="Layer 2">
    <g>
      <path class="cls-1" d="m41.11,71.88h-7.82s-4.52-17.03-4.52-17.03c-.35-1.3-.77-2.38-1.24-3.24-.48-.86-1.03-1.53-1.67-2.04-.64-.5-1.37-.86-2.2-1.08-.83-.22-1.77-.33-2.83-.33h-3.42s-4.73,23.71-4.73,23.71h-7.25s10.68-53.25,10.68-53.25h13.77c2.63,0,4.92.26,6.87.77,1.94.52,3.55,1.26,4.83,2.22,1.28.96,2.22,2.15,2.83,3.55s.92,2.98.92,4.75c0,2.09-.34,4.03-1.02,5.83-.68,1.79-1.64,3.4-2.87,4.83-1.24,1.43-2.74,2.65-4.5,3.67-1.77,1.02-3.74,1.8-5.91,2.34,1.39.52,2.46,1.48,3.24,2.89.77,1.41,1.45,3.18,2.02,5.3l4.85,17.11Zm-3.42-40.79c0-4.24-2.87-6.36-8.6-6.36h-7.01s-3.5,17.6-3.5,17.6h5.42c2.2,0,4.15-.3,5.85-.9,1.7-.6,3.12-1.41,4.28-2.42,1.15-1.02,2.04-2.21,2.65-3.57.61-1.36.92-2.81.92-4.36Z"/>
      <path class="cls-1" d="m86.47,81.37h-7.09s5.58-33.21,5.58-33.21l2.08-12.75-3.99,7.42-12.02,21.19h-5.01s-3.5-20.37-3.5-20.37l-.81-8.23-2.85,13.32-7.42,32.64h-6.85s13.24-53.25,13.24-53.25h8.27s3.18,20.05,3.18,20.05l.9,6.76,3.71-6.76,11.49-20.05h9.21s-8.11,53.25-8.11,53.25Z"/>
    </g>
  </g>
</svg>