<?xml version="1.0" encoding="UTF-8"?>
<svg xmlns="http://www.w3.org/2000/svg" xmlns:xlink="http://www.w3.org/1999/xlink" viewBox="0 0 100 100">
  <defs>
    <style>
      .cls-1 {
        fill: #860507;
        filter: url(#drop-shadow-1);
      }

      .cls-1, .cls-2, .cls-3 {
        stroke-width: 0px;
      }

      .cls-4 {
        filter: url(#drop-shadow-7);
      }

      .cls-4, .cls-5, .cls-6, .cls-7, .cls-8, .cls-9 {
        fill: none;
        stroke-miterlimit: 10;
        stroke-width: 4px;
      }

      .cls-4, .cls-6, .cls-9 {
        stroke: #fff;
      }

      .cls-5 {
        stroke: #e32028;
      }

      .cls-10 {
        filter: url(#outer-glow-9);
      }

      .cls-6 {
        filter: url(#drop-shadow-3);
      }

      .cls-7 {
        fill-rule: evenodd;
        filter: url(#drop-shadow-5);
      }

      .cls-7, .cls-8 {
        stroke: #860507;
      }

      .cls-8 {
        filter: url(#drop-shadow-2);
      }

      .cls-2 {
        filter: url(#drop-shadow-6);
      }

      .cls-2, .cls-3 {
        fill: #fff;
      }

      .cls-3 {
        filter: url(#drop-shadow-8);
      }

      .cls-9 {
        filter: url(#drop-shadow-4);
      }
    </style>
    <filter id="drop-shadow-1" filterUnits="userSpaceOnUse">
      <feOffset dx="0" dy="0"/>
      <feGaussianBlur result="blur" stdDeviation="1"/>
      <feFlood flood-color="#231f20" flood-opacity="1"/>
      <feComposite in2="blur" operator="in"/>
      <feComposite in="SourceGraphic"/>
    </filter>
    <filter id="drop-shadow-2" filterUnits="userSpaceOnUse">
      <feOffset dx="0" dy="0"/>
      <feGaussianBlur result="blur-2" stdDeviation="1"/>
      <feFlood flood-color="#231f20" flood-opacity="1"/>
      <feComposite in2="blur-2" operator="in"/>
      <feComposite in="SourceGraphic"/>
    </filter>
    <filter id="drop-shadow-3" filterUnits="userSpaceOnUse">
      <feOffset dx="0" dy="0"/>
      <feGaussianBlur result="blur-3" stdDeviation="1"/>
      <feFlood flood-color="#231f20" flood-opacity="1"/>
      <feComposite in2="blur-3" operator="in"/>
      <feComposite in="SourceGraphic"/>
    </filter>
    <filter id="drop-shadow-4" filterUnits="userSpaceOnUse">
      <feOffset dx="0" dy="0"/>
      <feGaussianBlur result="blur-4" stdDeviation="1"/>
      <feFlood flood-color="#231f20" flood-opacity="1"/>
      <feComposite in2="blur-4" operator="in"/>
      <feComposite in="SourceGraphic"/>
    </filter>
    <filter id="drop-shadow-5" filterUnits="userSpaceOnUse">
      <feOffset dx="0" dy="0"/>
      <feGaussianBlur result="blur-5" stdDeviation="1"/>
      <feFlood flood-color="#231f20" flood-opacity="1"/>
      <feComposite in2="blur-5" operator="in"/>
      <feComposite in="SourceGraphic"/>
    </filter>
    <filter id="drop-shadow-6" filterUnits="userSpaceOnUse">
      <feOffset dx="0" dy="0"/>
      <feGaussianBlur result="blur-6" stdDeviation="1"/>
      <feFlood flood-color="#231f20" flood-opacity="1"/>
      <feComposite in2="blur-6" operator="in"/>
      <feComposite in="SourceGraphic"/>
    </filter>
    <filter id="drop-shadow-7" filterUnits="userSpaceOnUse">
      <feOffset dx="0" dy="0"/>
      <feGaussianBlur result="blur-7" stdDeviation="1"/>
      <feFlood flood-color="#231f20" flood-opacity="1"/>
      <feComposite in2="blur-7" operator="in"/>
      <feComposite in="SourceGraphic"/>
    </filter>
    <filter id="drop-shadow-8" filterUnits="userSpaceOnUse">
      <feOffset dx="0" dy="0"/>
      <feGaussianBlur result="blur-8" stdDeviation="2"/>
      <feFlood flood-color="#231f20" flood-opacity="1"/>
      <feComposite in2="blur-8" operator="in"/>
      <feComposite in="SourceGraphic"/>
    </filter>
    <filter id="outer-glow-9" filterUnits="userSpaceOnUse">
      <feOffset dx="0" dy="0"/>
      <feGaussianBlur result="blur-9" stdDeviation="5"/>
      <feFlood flood-color="#e32028" flood-opacity=".1"/>
      <feComposite in2="blur-9" operator="in"/>
      <feComposite in="SourceGraphic"/>
    </filter>
  </defs>
  <g id="Layer_7" data-name="Layer 7">
    <rect class="cls-1" x="42.71" y="11.16" width="15" height="8"/>
  </g>
  <g id="Layer_9" data-name="Layer 9">
    <polyline class="cls-8" points="42.71 71.23 50.27 84.33 57.71 71.44"/>
  </g>
  <g id="Layer_10" data-name="Layer 10">
    <polygon class="cls-6" points="33.24 66.72 42.71 76.19 42.71 51.39 33.24 51.39 33.24 66.72"/>
    <polygon class="cls-9" points="67.18 66.72 57.71 76.19 57.71 51.39 67.18 51.39 67.18 66.72"/>
  </g>
  <g id="Layer_8" data-name="Layer 8">
    <polyline class="cls-7" points="72.71 48.56 72.71 38.01 50.21 25.02 27.71 38.01 27.71 48.73"/>
  </g>
  <g id="Layer_5" data-name="Layer 5">
    <polyline class="cls-2" points="50.21 50.21 72.76 27.67 66.26 21.16 50.21 21.16 34.17 21.16 27.67 27.67 50.06 50.06"/>
    <polyline class="cls-4" points="50.21 50.21 72.76 27.67 66.26 21.16 50.21 21.16 34.17 21.16 27.67 27.67 50.06 50.06"/>
  </g>
  <g id="Layer_2" data-name="Layer 2">
    <rect class="cls-3" x="33.24" y="33.24" width="33.94" height="33.94" transform="translate(-20.8 50.21) rotate(-45)"/>
  </g>
  <g id="Layer_1" data-name="Layer 1">
    <g class="cls-10">
      <rect class="cls-5" x="52.61" y="36.41" width="11.26" height="11.26" transform="translate(-12.67 53.49) rotate(-45)"/>
      <path class="cls-5" d="m45.62,38.74c-1.4-1.4-2.5-2.97-3.3-4.66,0,0,7.96-7.96,7.96-7.96l7.96,7.96"/>
      <path class="cls-5" d="m66.19,42.04l7.96,7.96s-7.96,7.96-7.96,7.96c-1.68-.8-3.26-1.9-4.66-3.3s-2.5-2.97-3.3-4.66l-7.96-7.96"/>
      <rect class="cls-5" x="36.57" y="52.45" width="11.26" height="11.26" transform="translate(113.1 69.32) rotate(135)"/>
      <path class="cls-5" d="m34.23,58.08l-7.96-7.96s7.96-7.96,7.96-7.96c1.68.8,3.26,1.9,4.66,3.3s2.5,2.97,3.3,4.66l7.96,7.96c1.68.8,3.26,1.9,4.66,3.3s2.5,2.97,3.3,4.66c0,0-7.96,7.96-7.96,7.96l-7.96-7.96"/>
      <line class="cls-5" x1="34.23" y1="42.16" x2="42.31" y2="34.08"/>
      <line class="cls-5" x1="58.11" y1="66.04" x2="66.19" y2="57.96"/>
    </g>
  </g>
</svg>