<?xml version="1.0" encoding="UTF-8"?>
<svg xmlns="http://www.w3.org/2000/svg" xmlns:xlink="http://www.w3.org/1999/xlink" viewBox="0 0 100 100">
  <defs>
    <style>
      .cls-1 {
        fill: #373839;
      }

      .cls-1, .cls-2 {
        stroke-width: 0px;
      }

      .cls-3 {
        filter: url(#drop-shadow-6);
      }

      .cls-4 {
        filter: url(#drop-shadow-5);
      }

      .cls-4, .cls-5, .cls-6, .cls-7, .cls-8 {
        fill: none;
        stroke-miterlimit: 10;
      }

      .cls-4, .cls-5, .cls-7, .cls-8 {
        stroke-width: 4px;
      }

      .cls-4, .cls-7, .cls-8 {
        stroke: #fff;
      }

      .cls-5, .cls-6 {
        stroke: #aaa;
      }

      .cls-2 {
        fill: #fff;
        filter: url(#drop-shadow-1);
      }

      .cls-2, .cls-7, .cls-8 {
        fill-rule: evenodd;
      }

      .cls-6 {
        filter: url(#drop-shadow-2);
        stroke-width: 5px;
      }

      .cls-7 {
        filter: url(#drop-shadow-3);
      }

      .cls-8 {
        filter: url(#drop-shadow-4);
      }
    </style>
    <filter id="drop-shadow-1" filterUnits="userSpaceOnUse">
      <feOffset dx="0" dy="0"/>
      <feGaussianBlur result="blur" stdDeviation="1"/>
      <feFlood flood-color="#231f20" flood-opacity="1"/>
      <feComposite in2="blur" operator="in"/>
      <feComposite in="SourceGraphic"/>
    </filter>
    <filter id="drop-shadow-2" filterUnits="userSpaceOnUse">
      <feOffset dx="0" dy="0"/>
      <feGaussianBlur result="blur-2" stdDeviation="1"/>
      <feFlood flood-color="#231f20" flood-opacity="1"/>
      <feComposite in2="blur-2" operator="in"/>
      <feComposite in="SourceGraphic"/>
    </filter>
    <filter id="drop-shadow-3" filterUnits="userSpaceOnUse">
      <feOffset dx="0" dy="0"/>
      <feGaussianBlur result="blur-3" stdDeviation="1"/>
      <feFlood flood-color="#231f20" flood-opacity="1"/>
      <feComposite in2="blur-3" operator="in"/>
      <feComposite in="SourceGraphic"/>
    </filter>
    <filter id="drop-shadow-4" filterUnits="userSpaceOnUse">
      <feOffset dx="0" dy="0"/>
      <feGaussianBlur result="blur-4" stdDeviation="1"/>
      <feFlood flood-color="#231f20" flood-opacity="1"/>
      <feComposite in2="blur-4" operator="in"/>
      <feComposite in="SourceGraphic"/>
    </filter>
    <filter id="drop-shadow-5" filterUnits="userSpaceOnUse">
      <feOffset dx="0" dy="0"/>
      <feGaussianBlur result="blur-5" stdDeviation="1"/>
      <feFlood flood-color="#231f20" flood-opacity="1"/>
      <feComposite in2="blur-5" operator="in"/>
      <feComposite in="SourceGraphic"/>
    </filter>
    <filter id="drop-shadow-6" filterUnits="userSpaceOnUse">
      <feOffset dx="0" dy="0"/>
      <feGaussianBlur result="blur-6" stdDeviation="1"/>
      <feFlood flood-color="#231f20" flood-opacity="1"/>
      <feComposite in2="blur-6" operator="in"/>
      <feComposite in="SourceGraphic"/>
    </filter>
  </defs>
  <g id="Layer_5" data-name="Layer 5">
    <polygon class="cls-2" points="35.15 20 65.15 20 50.15 40 35.15 20"/>
  </g>
  <g id="Layer_6" data-name="Layer 6">
    <polyline class="cls-6" points="57.22 29.78 70.15 42.71 50.15 62.71 30.15 42.71 42.94 29.92"/>
  </g>
  <g id="Layer_4" data-name="Layer 4">
    <polygon class="cls-7" points="35.15 20 65.15 20 50.15 40 35.15 20"/>
    <polyline class="cls-8" points="29.15 58 26.15 55 50.15 31 74.15 55 71.15 58"/>
    <rect class="cls-4" x="33.18" y="44.03" width="33.94" height="33.94" transform="translate(-28.44 53.33) rotate(-45)"/>
  </g>
  <g id="Layer_2" data-name="Layer 2">
    <rect class="cls-1" x="33.18" y="33.18" width="33.94" height="33.94" transform="translate(-20.77 50.15) rotate(-45)"/>
  </g>
  <g id="Layer_1" data-name="Layer 1">
    <g class="cls-3">
      <rect class="cls-5" x="52.54" y="36.35" width="11.26" height="11.26" transform="translate(-12.65 53.43) rotate(-45)"/>
      <path class="cls-5" d="m45.55,38.68c-1.4-1.4-2.5-2.97-3.3-4.66,0,0,7.96-7.96,7.96-7.96l7.96,7.96"/>
      <path class="cls-5" d="m66.13,41.98l7.96,7.96s-7.96,7.96-7.96,7.96c-1.68-.8-3.26-1.9-4.66-3.3s-2.5-2.97-3.3-4.66l-7.96-7.96"/>
      <rect class="cls-5" x="36.5" y="52.39" width="11.26" height="11.26" transform="translate(112.95 69.25) rotate(135)"/>
      <path class="cls-5" d="m34.17,58.02l-7.96-7.96s7.96-7.96,7.96-7.96c1.68.8,3.26,1.9,4.66,3.3s2.5,2.97,3.3,4.66l7.96,7.96c1.68.8,3.26,1.9,4.66,3.3s2.5,2.97,3.3,4.66c0,0-7.96,7.96-7.96,7.96l-7.96-7.96"/>
      <line class="cls-5" x1="34.17" y1="42.1" x2="42.25" y2="34.02"/>
      <line class="cls-5" x1="58.05" y1="65.98" x2="66.13" y2="57.9"/>
    </g>
  </g>
</svg>